<svg version="1.2" xmlns="http://www.w3.org/2000/svg" viewBox="0 0 1985 865" width="1985" height="865"><style>.a{fill:#414042}.b{fill:#016685}</style><path class="a" d="m0.5 835.9v-84.4q0-28.1 28.1-28.1h112.5v28.1h-112.5v84.4h112.5v28.1h-112.5q-28.1 0-28.1-28.1z"/><path class="a" d="m363.5 751.5h-112.5v28.1h84.4q28.1 0 28.1 28.2v28.1q0 28.1-28.1 28.1h-112.5v-28.1h112.5v-28.1h-84.4q-28.1 0-28.1-28.2v-28.1q0-28.1 28.1-28.1h112.5z"/><path class="a" d="m540.2 723.4h84.3q28.2 0 28.1 28.1v84.4q0.1 28.1-28.1 28.1h-84.3q-28.2 0-28.2-28.1v-84.4q0-28.1 28.2-28.1zm0 28.1v84.4h84.3v-84.4z"/><path class="a" d="m762.6 723.4v140.6h-28.1v-140.6z"/><path class="a" d="m985 864h-140.6v-140.6h28.1v112.5h112.5v28.1z"/><path class="a" d="m1066.9 723.4h140.6v28.1h-112.5v28.1h112.5v28.2h-112.5v56.2h-28.1v-140.6z"/><path class="a" d="m1317.4 723.4v140.6h-28.1v-140.6z"/><path class="a" d="m1427.4 807.8v28.1h112.4v28.1h-140.6v-140.6h140.6v28.1h-112.4v28.1h112.4v28.2h-112.4z"/><path class="a" d="m1762.3 864h-140.6v-140.6h28.1v112.5h112.5v28.1z"/><path class="a" d="m1844.1 864v-140.6h112.5q28.1 0 28.1 28.1v84.4q0 28.1-28.1 28.1h-112.5zm28.1-28.1h84.4v-84.4h-84.4z"/><path class="b" d="m835 444.4q-38.4-36-58.8-92.9-20.5-56.8-20.4-127.3c0-47 6.9-86.8 20.8-125.8 13.9-38.9 33.3-71.5 58.4-97.7h176.3l-0.1 2.4q-56.8 47.3-86.8 102.1-30.1 54.9-30.1 115c0 40 9.5 79.4 28.4 114.9q28.5 53.3 89.3 106.9v2.4c0 0-177 0-177 0z"/><path class="b" d="m1023.2 548.3v-1.7c37.4-41 56.1-78.4 56.1-112 0-9.1-1.2-18.2-3.6-27.3q-3.6-13.6-12.8-32.8c-6.2-12.8-14.6-29.4-25.2-49.7-17.1-32.5-25.7-63.5-25.7-92.9q0-29.6 13.6-63.6c9.1-22.8 22.4-44 40.1-63.8h149.7v1.7q-29.6 32.8-42.4 58.8c-8.6 17.4-12.8 35.1-12.8 53.3q0 20 7.2 39.2 7.2 19.3 23.2 49.7 21.7 39.2 30 63.6c5.6 16.4 8.5 33 8.5 50.1q0 34.4-11.3 64.5c-7.4 20-19.7 41-36.8 62.9h-157.8z"/></svg>